<svg xmlns="http://www.w3.org/2000/svg" xmlns:xlink="http://www.w3.org/1999/xlink" width="500" zoomAndPan="magnify" viewBox="0 0 375 60.75" height="81" preserveAspectRatio="xMidYMid meet" version="1.0"><defs><g/><clipPath id="12268a98dc"><path d="M 325.449219 0 L 364.289062 0 L 364.289062 38.839844 L 325.449219 38.839844 Z M 325.449219 0 " clip-rule="nonzero"/></clipPath><clipPath id="b60329f9b9"><path d="M 175 15 L 198 15 L 198 60.5 L 175 60.5 Z M 175 15 " clip-rule="nonzero"/></clipPath></defs><g clip-path="url(#12268a98dc)"><path fill="#17293d" d="M 364.289062 19.421875 C 364.289062 20.054688 364.257812 20.691406 364.195312 21.324219 C 364.132812 21.957031 364.042969 22.585938 363.917969 23.207031 C 363.792969 23.832031 363.640625 24.449219 363.453125 25.058594 C 363.269531 25.667969 363.054688 26.265625 362.8125 26.851562 C 362.570312 27.4375 362.296875 28.015625 361.996094 28.574219 C 361.699219 29.136719 361.371094 29.679688 361.019531 30.210938 C 360.664062 30.738281 360.285156 31.25 359.882812 31.738281 C 359.480469 32.230469 359.050781 32.703125 358.601562 33.152344 C 358.152344 33.601562 357.683594 34.027344 357.191406 34.433594 C 356.699219 34.835938 356.1875 35.214844 355.660156 35.566406 C 355.128906 35.921875 354.585938 36.246094 354.023438 36.546875 C 353.464844 36.847656 352.890625 37.117188 352.300781 37.363281 C 351.714844 37.605469 351.117188 37.820312 350.507812 38.003906 C 349.898438 38.1875 349.28125 38.34375 348.660156 38.46875 C 348.035156 38.589844 347.40625 38.683594 346.773438 38.746094 C 346.140625 38.808594 345.507812 38.839844 344.871094 38.839844 C 344.234375 38.839844 343.601562 38.808594 342.96875 38.746094 C 342.335938 38.683594 341.707031 38.589844 341.082031 38.46875 C 340.457031 38.34375 339.839844 38.1875 339.234375 38.003906 C 338.625 37.820312 338.027344 37.605469 337.4375 37.363281 C 336.851562 37.117188 336.277344 36.847656 335.714844 36.546875 C 335.15625 36.246094 334.609375 35.921875 334.082031 35.566406 C 333.550781 35.214844 333.042969 34.835938 332.550781 34.433594 C 332.058594 34.027344 331.589844 33.601562 331.136719 33.152344 C 330.6875 32.703125 330.261719 32.230469 329.859375 31.738281 C 329.453125 31.25 329.078125 30.738281 328.722656 30.210938 C 328.371094 29.679688 328.042969 29.136719 327.742188 28.574219 C 327.445312 28.015625 327.171875 27.4375 326.929688 26.851562 C 326.683594 26.265625 326.472656 25.667969 326.285156 25.058594 C 326.101562 24.449219 325.949219 23.832031 325.824219 23.207031 C 325.699219 22.585938 325.605469 21.957031 325.542969 21.324219 C 325.480469 20.691406 325.449219 20.054688 325.449219 19.421875 C 325.449219 18.785156 325.480469 18.148438 325.542969 17.515625 C 325.605469 16.882812 325.699219 16.253906 325.824219 15.632812 C 325.949219 15.007812 326.101562 14.390625 326.285156 13.78125 C 326.472656 13.175781 326.683594 12.574219 326.929688 11.988281 C 327.171875 11.402344 327.445312 10.828125 327.742188 10.265625 C 328.042969 9.703125 328.371094 9.160156 328.722656 8.632812 C 329.078125 8.101562 329.453125 7.589844 329.859375 7.101562 C 330.261719 6.609375 330.6875 6.136719 331.136719 5.6875 C 331.589844 5.238281 332.058594 4.8125 332.550781 4.40625 C 333.042969 4.003906 333.550781 3.625 334.082031 3.273438 C 334.609375 2.917969 335.15625 2.59375 335.714844 2.292969 C 336.277344 1.992188 336.851562 1.722656 337.4375 1.476562 C 338.027344 1.234375 338.625 1.019531 339.234375 0.835938 C 339.839844 0.652344 340.457031 0.496094 341.082031 0.375 C 341.707031 0.25 342.335938 0.15625 342.96875 0.09375 C 343.601562 0.03125 344.234375 0 344.871094 0 C 345.507812 0 346.140625 0.03125 346.773438 0.09375 C 347.40625 0.15625 348.035156 0.25 348.660156 0.375 C 349.28125 0.496094 349.898438 0.652344 350.507812 0.835938 C 351.117188 1.019531 351.714844 1.234375 352.300781 1.476562 C 352.890625 1.722656 353.464844 1.992188 354.023438 2.292969 C 354.585938 2.59375 355.128906 2.917969 355.660156 3.273438 C 356.1875 3.625 356.699219 4.003906 357.191406 4.40625 C 357.683594 4.8125 358.152344 5.238281 358.601562 5.6875 C 359.050781 6.136719 359.480469 6.609375 359.882812 7.101562 C 360.285156 7.589844 360.664062 8.101562 361.019531 8.632812 C 361.371094 9.160156 361.699219 9.703125 361.996094 10.265625 C 362.296875 10.828125 362.570312 11.402344 362.8125 11.988281 C 363.054688 12.574219 363.269531 13.175781 363.453125 13.78125 C 363.640625 14.390625 363.792969 15.007812 363.917969 15.632812 C 364.042969 16.253906 364.132812 16.882812 364.195312 17.515625 C 364.257812 18.148438 364.289062 18.785156 364.289062 19.421875 Z M 364.289062 19.421875 " fill-opacity="1" fill-rule="nonzero"/></g><path fill="#ee6600" d="M 332.984375 16.757812 L 332.984375 22.914062 C 332.984375 23.207031 333.21875 23.421875 333.492188 23.421875 L 337.433594 23.421875 C 337.53125 23.421875 337.625 23.441406 337.703125 23.5 L 343.957031 27.597656 C 344.308594 27.808594 344.753906 27.578125 344.753906 27.167969 L 344.753906 12.136719 C 344.753906 11.730469 344.289062 11.476562 343.9375 11.730469 L 337.722656 16.175781 C 337.644531 16.234375 337.53125 16.273438 337.433594 16.273438 L 333.507812 16.273438 C 333.21875 16.253906 332.984375 16.488281 332.984375 16.757812 Z M 332.984375 16.757812 " fill-opacity="1" fill-rule="nonzero"/><path fill="#ee6600" d="M 347.996094 23.652344 C 347.859375 23.652344 347.726562 23.613281 347.609375 23.554688 C 347.257812 23.34375 347.144531 22.875 347.335938 22.527344 C 348.929688 19.828125 347.414062 17.476562 347.355469 17.382812 C 347.125 17.03125 347.21875 16.566406 347.570312 16.332031 C 347.917969 16.097656 348.386719 16.195312 348.617188 16.546875 C 348.714844 16.683594 350.734375 19.769531 348.636719 23.304688 C 348.503906 23.519531 348.25 23.652344 347.996094 23.652344 Z M 347.996094 23.652344 " fill-opacity="1" fill-rule="nonzero"/><path fill="#ee6600" d="M 350.929688 25.441406 C 350.773438 25.441406 350.617188 25.402344 350.484375 25.304688 C 350.152344 25.070312 350.054688 24.585938 350.308594 24.253906 C 353.589844 19.671875 350.386719 15.847656 350.347656 15.808594 C 350.074219 15.496094 350.113281 15.011719 350.425781 14.738281 C 350.734375 14.46875 351.222656 14.507812 351.492188 14.816406 C 351.53125 14.855469 355.492188 19.59375 351.53125 25.128906 C 351.394531 25.324219 351.164062 25.441406 350.929688 25.441406 Z M 350.929688 25.441406 " fill-opacity="1" fill-rule="nonzero"/><path fill="#ee6600" d="M 353.667969 27.167969 C 353.511719 27.167969 353.335938 27.109375 353.203125 27.011719 C 352.871094 26.761719 352.8125 26.273438 353.066406 25.945312 C 358.019531 19.632812 353.296875 14 353.085938 13.769531 C 352.8125 13.457031 352.851562 12.972656 353.164062 12.699219 C 353.472656 12.429688 353.960938 12.46875 354.230469 12.777344 C 354.289062 12.835938 359.980469 19.59375 354.25 26.878906 C 354.113281 27.070312 353.902344 27.167969 353.667969 27.167969 Z M 353.667969 27.167969 " fill-opacity="1" fill-rule="nonzero"/><g fill="#ee6600" fill-opacity="1"><g transform="translate(150.297087, 53.227531)"><g><path d="M 12.40625 0.40625 C 8.40625 0.40625 5.515625 -0.582031 3.734375 -2.5625 C 1.960938 -4.539062 1.078125 -7.734375 1.078125 -12.140625 L 1.078125 -16.453125 L 9.734375 -16.453125 L 9.734375 -10.96875 C 9.734375 -8.78125 10.429688 -7.6875 11.828125 -7.6875 C 12.617188 -7.6875 13.164062 -7.914062 13.46875 -8.375 C 13.78125 -8.832031 13.9375 -9.609375 13.9375 -10.703125 C 13.9375 -12.140625 13.765625 -13.328125 13.421875 -14.265625 C 13.078125 -15.203125 12.640625 -15.988281 12.109375 -16.625 C 11.585938 -17.257812 10.644531 -18.242188 9.28125 -19.578125 L 5.484375 -23.359375 C 2.546875 -26.234375 1.078125 -29.410156 1.078125 -32.890625 C 1.078125 -36.648438 1.9375 -39.507812 3.65625 -41.46875 C 5.382812 -43.4375 7.90625 -44.421875 11.21875 -44.421875 C 15.175781 -44.421875 18.023438 -43.367188 19.765625 -41.265625 C 21.515625 -39.171875 22.390625 -35.882812 22.390625 -31.40625 L 13.421875 -31.40625 L 13.375 -34.421875 C 13.375 -35.003906 13.210938 -35.46875 12.890625 -35.8125 C 12.566406 -36.15625 12.113281 -36.328125 11.53125 -36.328125 C 10.84375 -36.328125 10.328125 -36.140625 9.984375 -35.765625 C 9.648438 -35.390625 9.484375 -34.875 9.484375 -34.21875 C 9.484375 -32.789062 10.300781 -31.304688 11.9375 -29.765625 L 17.0625 -24.84375 C 18.257812 -23.6875 19.25 -22.585938 20.03125 -21.546875 C 20.820312 -20.503906 21.453125 -19.273438 21.921875 -17.859375 C 22.398438 -16.441406 22.640625 -14.757812 22.640625 -12.8125 C 22.640625 -8.46875 21.84375 -5.175781 20.25 -2.9375 C 18.664062 -0.707031 16.050781 0.40625 12.40625 0.40625 Z M 12.40625 0.40625 "/></g></g></g><g clip-path="url(#b60329f9b9)"><g fill="#ee6600" fill-opacity="1"><g transform="translate(173.914479, 53.227531)"><g><path d="M 1.796875 -37.5 L 10.90625 -37.5 L 10.90625 -35.5 C 12.207031 -37.101562 14.003906 -37.90625 16.296875 -37.90625 C 19.191406 -37.90625 21.210938 -36.929688 22.359375 -34.984375 C 23.503906 -33.046875 24.078125 -30.347656 24.078125 -26.890625 L 24.078125 -13.015625 C 24.078125 -10.078125 23.90625 -7.675781 23.5625 -5.8125 C 23.226562 -3.945312 22.476562 -2.441406 21.3125 -1.296875 C 20.15625 -0.160156 18.394531 0.40625 16.03125 0.40625 C 13.78125 0.40625 12.070312 -0.222656 10.90625 -1.484375 L 10.90625 7.484375 L 1.796875 7.484375 Z M 13.0625 -6.5625 C 13.882812 -6.5625 14.414062 -6.9375 14.65625 -7.6875 C 14.894531 -8.4375 15.015625 -9.53125 15.015625 -10.96875 L 15.015625 -26.890625 C 15.015625 -28.191406 14.894531 -29.179688 14.65625 -29.859375 C 14.414062 -30.546875 13.867188 -30.890625 13.015625 -30.890625 C 11.609375 -30.890625 10.90625 -29.59375 10.90625 -27 L 10.90625 -10.546875 C 10.90625 -9.285156 11.050781 -8.304688 11.34375 -7.609375 C 11.632812 -6.910156 12.207031 -6.5625 13.0625 -6.5625 Z M 13.0625 -6.5625 "/></g></g></g></g><g fill="#ee6600" fill-opacity="1"><g transform="translate(199.52987, 53.227531)"><g><path d="M 12.296875 0.40625 C 8.429688 0.40625 5.660156 -0.648438 3.984375 -2.765625 C 2.316406 -4.878906 1.484375 -8.039062 1.484375 -12.25 L 1.484375 -27.3125 C 1.484375 -30.757812 2.472656 -33.382812 4.453125 -35.1875 C 6.429688 -37 9.195312 -37.90625 12.75 -37.90625 C 19.957031 -37.90625 23.5625 -34.375 23.5625 -27.3125 L 23.5625 -24.59375 C 23.5625 -21.863281 23.53125 -19.644531 23.46875 -17.9375 L 10.453125 -17.9375 L 10.453125 -10.65625 C 10.453125 -9.351562 10.585938 -8.332031 10.859375 -7.59375 C 11.128906 -6.863281 11.710938 -6.5 12.609375 -6.5 C 13.285156 -6.5 13.769531 -6.703125 14.0625 -7.109375 C 14.351562 -7.523438 14.523438 -8 14.578125 -8.53125 C 14.628906 -9.0625 14.65625 -9.835938 14.65625 -10.859375 L 14.65625 -14.5 L 23.5625 -14.5 L 23.5625 -12.34375 C 23.5625 -7.976562 22.71875 -4.757812 21.03125 -2.6875 C 19.34375 -0.625 16.429688 0.40625 12.296875 0.40625 Z M 14.65625 -22.390625 L 14.65625 -27.203125 C 14.65625 -29.898438 13.988281 -31.25 12.65625 -31.25 C 11.15625 -31.25 10.40625 -29.898438 10.40625 -27.203125 L 10.40625 -22.390625 Z M 14.65625 -22.390625 "/></g></g></g><g fill="#ee6600" fill-opacity="1"><g transform="translate(224.530495, 53.227531)"><g><path d="M 8.609375 0.40625 C 5.703125 0.40625 3.710938 -0.554688 2.640625 -2.484375 C 1.566406 -4.410156 1.03125 -7.171875 1.03125 -10.765625 C 1.03125 -13.703125 1.410156 -15.953125 2.171875 -17.515625 C 2.941406 -19.085938 4.007812 -20.238281 5.375 -20.96875 C 6.738281 -21.707031 8.820312 -22.523438 11.625 -23.421875 L 14.09375 -24.234375 L 14.09375 -28.078125 C 14.09375 -29.066406 13.894531 -29.828125 13.5 -30.359375 C 13.101562 -30.890625 12.632812 -31.15625 12.09375 -31.15625 C 11.613281 -31.15625 11.191406 -30.929688 10.828125 -30.484375 C 10.472656 -30.035156 10.296875 -29.4375 10.296875 -28.6875 L 10.296875 -26.4375 L 1.59375 -26.4375 L 1.59375 -27.671875 C 1.59375 -31.359375 2.453125 -33.984375 4.171875 -35.546875 C 5.898438 -37.117188 8.710938 -37.90625 12.609375 -37.90625 C 15.710938 -37.90625 18.238281 -37.09375 20.1875 -35.46875 C 22.132812 -33.851562 23.109375 -31.5625 23.109375 -28.59375 L 23.109375 0 L 14.1875 0 L 14.1875 -4.453125 C 13.75 -2.921875 13.039062 -1.726562 12.0625 -0.875 C 11.09375 -0.0195312 9.941406 0.40625 8.609375 0.40625 Z M 12.140625 -6.5625 C 12.828125 -6.5625 13.3125 -6.84375 13.59375 -7.40625 C 13.882812 -7.96875 14.03125 -8.660156 14.03125 -9.484375 L 14.03125 -19.9375 C 12.707031 -19.414062 11.726562 -18.765625 11.09375 -17.984375 C 10.457031 -17.203125 10.140625 -16.109375 10.140625 -14.703125 L 10.140625 -9.890625 C 10.140625 -7.671875 10.804688 -6.5625 12.140625 -6.5625 Z M 12.140625 -6.5625 "/></g></g></g><g fill="#ee6600" fill-opacity="1"><g transform="translate(249.274958, 53.227531)"><g><path d="M 1.796875 0 L 1.796875 -44.265625 L 10.65625 -44.265625 L 10.65625 -24.59375 L 14.953125 -37.5 L 24.234375 -37.5 L 18.59375 -21.21875 L 25.765625 0 L 16.234375 0 L 10.65625 -17.671875 L 10.65625 0 Z M 1.796875 0 "/></g></g></g><g fill="#ee6600" fill-opacity="1"><g transform="translate(274.429265, 53.227531)"><g><path d="M 12.296875 0.40625 C 8.429688 0.40625 5.660156 -0.648438 3.984375 -2.765625 C 2.316406 -4.878906 1.484375 -8.039062 1.484375 -12.25 L 1.484375 -27.3125 C 1.484375 -30.757812 2.472656 -33.382812 4.453125 -35.1875 C 6.429688 -37 9.195312 -37.90625 12.75 -37.90625 C 19.957031 -37.90625 23.5625 -34.375 23.5625 -27.3125 L 23.5625 -24.59375 C 23.5625 -21.863281 23.53125 -19.644531 23.46875 -17.9375 L 10.453125 -17.9375 L 10.453125 -10.65625 C 10.453125 -9.351562 10.585938 -8.332031 10.859375 -7.59375 C 11.128906 -6.863281 11.710938 -6.5 12.609375 -6.5 C 13.285156 -6.5 13.769531 -6.703125 14.0625 -7.109375 C 14.351562 -7.523438 14.523438 -8 14.578125 -8.53125 C 14.628906 -9.0625 14.65625 -9.835938 14.65625 -10.859375 L 14.65625 -14.5 L 23.5625 -14.5 L 23.5625 -12.34375 C 23.5625 -7.976562 22.71875 -4.757812 21.03125 -2.6875 C 19.34375 -0.625 16.429688 0.40625 12.296875 0.40625 Z M 14.65625 -22.390625 L 14.65625 -27.203125 C 14.65625 -29.898438 13.988281 -31.25 12.65625 -31.25 C 11.15625 -31.25 10.40625 -29.898438 10.40625 -27.203125 L 10.40625 -22.390625 Z M 14.65625 -22.390625 "/></g></g></g><g fill="#ee6600" fill-opacity="1"><g transform="translate(299.42989, 53.227531)"><g><path d="M 1.796875 -37.5 L 10.765625 -37.5 L 10.765625 -33.359375 C 11.203125 -34.828125 11.972656 -35.960938 13.078125 -36.765625 C 14.191406 -37.566406 15.570312 -37.96875 17.21875 -37.96875 L 17.21875 -30.484375 C 15.945312 -30.484375 14.550781 -30.300781 13.03125 -29.9375 C 11.519531 -29.582031 10.765625 -29.164062 10.765625 -28.6875 L 10.765625 0 L 1.796875 0 Z M 1.796875 -37.5 "/></g></g></g><g fill="#17293d" fill-opacity="1"><g transform="translate(4.503074, 50.986753)"><g><path d="M 1.953125 -44.015625 L 15.46875 -44.015625 C 17.625 -44.015625 19.289062 -43.523438 20.46875 -42.546875 C 21.644531 -41.578125 22.4375 -40.210938 22.84375 -38.453125 C 23.257812 -36.691406 23.46875 -34.445312 23.46875 -31.71875 C 23.46875 -29.21875 23.140625 -27.265625 22.484375 -25.859375 C 21.835938 -24.460938 20.710938 -23.492188 19.109375 -22.953125 C 20.441406 -22.679688 21.40625 -22.015625 22 -20.953125 C 22.601562 -19.890625 22.90625 -18.457031 22.90625 -16.65625 L 22.796875 0 L 14.1875 0 L 14.1875 -17.21875 C 14.1875 -18.445312 13.945312 -19.226562 13.46875 -19.5625 C 12.988281 -19.90625 12.117188 -20.078125 10.859375 -20.078125 L 10.859375 0 L 1.953125 0 Z M 13.015625 -27.71875 C 14.242188 -27.71875 14.859375 -29.050781 14.859375 -31.71875 C 14.859375 -32.875 14.804688 -33.742188 14.703125 -34.328125 C 14.597656 -34.910156 14.410156 -35.3125 14.140625 -35.53125 C 13.867188 -35.75 13.476562 -35.859375 12.96875 -35.859375 L 10.90625 -35.859375 L 10.90625 -27.71875 Z M 13.015625 -27.71875 "/></g></g></g><g fill="#17293d" fill-opacity="1"><g transform="translate(28.940153, 50.986753)"><g><path d="M 12.296875 0.40625 C 8.429688 0.40625 5.660156 -0.648438 3.984375 -2.765625 C 2.316406 -4.878906 1.484375 -8.039062 1.484375 -12.25 L 1.484375 -27.3125 C 1.484375 -30.757812 2.472656 -33.382812 4.453125 -35.1875 C 6.429688 -37 9.195312 -37.90625 12.75 -37.90625 C 19.957031 -37.90625 23.5625 -34.375 23.5625 -27.3125 L 23.5625 -24.59375 C 23.5625 -21.863281 23.53125 -19.644531 23.46875 -17.9375 L 10.453125 -17.9375 L 10.453125 -10.65625 C 10.453125 -9.351562 10.585938 -8.332031 10.859375 -7.59375 C 11.128906 -6.863281 11.710938 -6.5 12.609375 -6.5 C 13.285156 -6.5 13.769531 -6.703125 14.0625 -7.109375 C 14.351562 -7.523438 14.523438 -8 14.578125 -8.53125 C 14.628906 -9.0625 14.65625 -9.835938 14.65625 -10.859375 L 14.65625 -14.5 L 23.5625 -14.5 L 23.5625 -12.34375 C 23.5625 -7.976562 22.71875 -4.757812 21.03125 -2.6875 C 19.34375 -0.625 16.429688 0.40625 12.296875 0.40625 Z M 14.65625 -22.390625 L 14.65625 -27.203125 C 14.65625 -29.898438 13.988281 -31.25 12.65625 -31.25 C 11.15625 -31.25 10.40625 -29.898438 10.40625 -27.203125 L 10.40625 -22.390625 Z M 14.65625 -22.390625 "/></g></g></g><g fill="#17293d" fill-opacity="1"><g transform="translate(53.940778, 50.986753)"><g><path d="M 8.609375 0.40625 C 5.703125 0.40625 3.710938 -0.554688 2.640625 -2.484375 C 1.566406 -4.410156 1.03125 -7.171875 1.03125 -10.765625 C 1.03125 -13.703125 1.410156 -15.953125 2.171875 -17.515625 C 2.941406 -19.085938 4.007812 -20.238281 5.375 -20.96875 C 6.738281 -21.707031 8.820312 -22.523438 11.625 -23.421875 L 14.09375 -24.234375 L 14.09375 -28.078125 C 14.09375 -29.066406 13.894531 -29.828125 13.5 -30.359375 C 13.101562 -30.890625 12.632812 -31.15625 12.09375 -31.15625 C 11.613281 -31.15625 11.191406 -30.929688 10.828125 -30.484375 C 10.472656 -30.035156 10.296875 -29.4375 10.296875 -28.6875 L 10.296875 -26.4375 L 1.59375 -26.4375 L 1.59375 -27.671875 C 1.59375 -31.359375 2.453125 -33.984375 4.171875 -35.546875 C 5.898438 -37.117188 8.710938 -37.90625 12.609375 -37.90625 C 15.710938 -37.90625 18.238281 -37.09375 20.1875 -35.46875 C 22.132812 -33.851562 23.109375 -31.5625 23.109375 -28.59375 L 23.109375 0 L 14.1875 0 L 14.1875 -4.453125 C 13.75 -2.921875 13.039062 -1.726562 12.0625 -0.875 C 11.09375 -0.0195312 9.941406 0.40625 8.609375 0.40625 Z M 12.140625 -6.5625 C 12.828125 -6.5625 13.3125 -6.84375 13.59375 -7.40625 C 13.882812 -7.96875 14.03125 -8.660156 14.03125 -9.484375 L 14.03125 -19.9375 C 12.707031 -19.414062 11.726562 -18.765625 11.09375 -17.984375 C 10.457031 -17.203125 10.140625 -16.109375 10.140625 -14.703125 L 10.140625 -9.890625 C 10.140625 -7.671875 10.804688 -6.5625 12.140625 -6.5625 Z M 12.140625 -6.5625 "/></g></g></g><g fill="#17293d" fill-opacity="1"><g transform="translate(78.685241, 50.986753)"><g><path d="M 9.171875 0.40625 C 6.984375 0.40625 5.332031 -0.113281 4.21875 -1.15625 C 3.113281 -2.195312 2.378906 -3.578125 2.015625 -5.296875 C 1.660156 -7.023438 1.484375 -9.238281 1.484375 -11.9375 L 1.59375 -28.84375 C 1.59375 -31.507812 2.265625 -33.6875 3.609375 -35.375 C 4.960938 -37.0625 6.867188 -37.90625 9.328125 -37.90625 C 11.753906 -37.90625 13.5625 -37.101562 14.75 -35.5 L 14.75 -44.265625 L 23.71875 -44.265625 L 23.71875 0 L 14.75 0 L 14.75 -4 C 14.238281 -2.53125 13.546875 -1.425781 12.671875 -0.6875 C 11.804688 0.0390625 10.640625 0.40625 9.171875 0.40625 Z M 12.609375 -6.609375 C 13.492188 -6.609375 14.070312 -7.039062 14.34375 -7.90625 C 14.613281 -8.78125 14.75 -9.953125 14.75 -11.421875 L 14.75 -27.109375 C 14.75 -28.203125 14.59375 -29.125 14.28125 -29.875 C 13.976562 -30.625 13.4375 -31 12.65625 -31 C 11.769531 -31 11.179688 -30.644531 10.890625 -29.9375 C 10.597656 -29.238281 10.453125 -28.296875 10.453125 -27.109375 L 10.453125 -11.328125 C 10.453125 -8.179688 11.171875 -6.609375 12.609375 -6.609375 Z M 12.609375 -6.609375 "/></g></g></g><g fill="#17293d" fill-opacity="1"><g transform="translate(104.19817, 50.986753)"><g><path d="M 12.296875 0.40625 C 8.429688 0.40625 5.660156 -0.648438 3.984375 -2.765625 C 2.316406 -4.878906 1.484375 -8.039062 1.484375 -12.25 L 1.484375 -27.3125 C 1.484375 -30.757812 2.472656 -33.382812 4.453125 -35.1875 C 6.429688 -37 9.195312 -37.90625 12.75 -37.90625 C 19.957031 -37.90625 23.5625 -34.375 23.5625 -27.3125 L 23.5625 -24.59375 C 23.5625 -21.863281 23.53125 -19.644531 23.46875 -17.9375 L 10.453125 -17.9375 L 10.453125 -10.65625 C 10.453125 -9.351562 10.585938 -8.332031 10.859375 -7.59375 C 11.128906 -6.863281 11.710938 -6.5 12.609375 -6.5 C 13.285156 -6.5 13.769531 -6.703125 14.0625 -7.109375 C 14.351562 -7.523438 14.523438 -8 14.578125 -8.53125 C 14.628906 -9.0625 14.65625 -9.835938 14.65625 -10.859375 L 14.65625 -14.5 L 23.5625 -14.5 L 23.5625 -12.34375 C 23.5625 -7.976562 22.71875 -4.757812 21.03125 -2.6875 C 19.34375 -0.625 16.429688 0.40625 12.296875 0.40625 Z M 14.65625 -22.390625 L 14.65625 -27.203125 C 14.65625 -29.898438 13.988281 -31.25 12.65625 -31.25 C 11.15625 -31.25 10.40625 -29.898438 10.40625 -27.203125 L 10.40625 -22.390625 Z M 14.65625 -22.390625 "/></g></g></g><g fill="#17293d" fill-opacity="1"><g transform="translate(129.198795, 50.986753)"><g><path d="M 1.796875 -37.5 L 10.765625 -37.5 L 10.765625 -33.359375 C 11.203125 -34.828125 11.972656 -35.960938 13.078125 -36.765625 C 14.191406 -37.566406 15.570312 -37.96875 17.21875 -37.96875 L 17.21875 -30.484375 C 15.945312 -30.484375 14.550781 -30.300781 13.03125 -29.9375 C 11.519531 -29.582031 10.765625 -29.164062 10.765625 -28.6875 L 10.765625 0 L 1.796875 0 Z M 1.796875 -37.5 "/></g></g></g></svg>